<?xml version="1.0" standalone="no"?>
<svg xmlns="http://www.w3.org/2000/svg" width="4096" height="4096" viewBox="0 0 4096 4096"><defs><clipPath id="clip-path-dot-color"><rect x="206" y="1222" width="127" height="127" transform="rotate(0,269.5,1285.5)"/><rect x="206" y="1349" width="127" height="127" transform="rotate(0,269.5,1412.5)"/><rect x="206" y="1476" width="127" height="127" transform="rotate(0,269.5,1539.5)"/><rect x="206" y="1603" width="127" height="127" transform="rotate(0,269.5,1666.5)"/><rect x="206" y="1730" width="127" height="127" transform="rotate(0,269.5,1793.5)"/><rect x="206" y="2111" width="127" height="127" transform="rotate(0,269.5,2174.5)"/><rect x="206" y="2238" width="127" height="127" transform="rotate(0,269.5,2301.5)"/><rect x="206" y="2492" width="127" height="127" transform="rotate(0,269.5,2555.5)"/><rect x="333" y="1222" width="127" height="127" transform="rotate(0,396.5,1285.5)"/><rect x="333" y="1349" width="127" height="127" transform="rotate(0,396.5,1412.5)"/><rect x="333" y="1603" width="127" height="127" transform="rotate(0,396.5,1666.5)"/><rect x="333" y="1730" width="127" height="127" transform="rotate(0,396.5,1793.5)"/><rect x="333" y="1857" width="127" height="127" transform="rotate(0,396.5,1920.5)"/><rect x="333" y="1984" width="127" height="127" transform="rotate(0,396.5,2047.5)"/><rect x="333" y="2492" width="127" height="127" transform="rotate(0,396.5,2555.5)"/><rect x="460" y="1222" width="127" height="127" transform="rotate(0,523.5,1285.5)"/><rect x="460" y="1349" width="127" height="127" transform="rotate(0,523.5,1412.5)"/><rect x="460" y="1857" width="127" height="127" transform="rotate(0,523.5,1920.5)"/><rect x="460" y="2111" width="127" height="127" transform="rotate(0,523.5,2174.5)"/><rect x="460" y="2238" width="127" height="127" transform="rotate(0,523.5,2301.5)"/><rect x="460" y="2492" width="127" height="127" transform="rotate(0,523.5,2555.5)"/><rect x="460" y="2619" width="127" height="127" transform="rotate(0,523.5,2682.5)"/><rect x="587" y="1222" width="127" height="127" transform="rotate(0,650.5,1285.5)"/><rect x="587" y="1476" width="127" height="127" transform="rotate(0,650.5,1539.5)"/><rect x="587" y="1603" width="127" height="127" transform="rotate(0,650.5,1666.5)"/><rect x="587" y="1730" width="127" height="127" transform="rotate(0,650.5,1793.5)"/><rect x="587" y="1857" width="127" height="127" transform="rotate(0,650.5,1920.5)"/><rect x="587" y="1984" width="127" height="127" transform="rotate(0,650.5,2047.5)"/><rect x="587" y="2111" width="127" height="127" transform="rotate(0,650.5,2174.5)"/><rect x="587" y="2492" width="127" height="127" transform="rotate(0,650.5,2555.5)"/><rect x="714" y="1222" width="127" height="127" transform="rotate(0,777.5,1285.5)"/><rect x="714" y="1349" width="127" height="127" transform="rotate(0,777.5,1412.5)"/><rect x="714" y="1603" width="127" height="127" transform="rotate(0,777.5,1666.5)"/><rect x="714" y="1984" width="127" height="127" transform="rotate(0,777.5,2047.5)"/><rect x="714" y="2238" width="127" height="127" transform="rotate(0,777.5,2301.5)"/><rect x="714" y="2619" width="127" height="127" transform="rotate(0,777.5,2682.5)"/><rect x="841" y="1476" width="127" height="127" transform="rotate(0,904.5,1539.5)"/><rect x="841" y="1984" width="127" height="127" transform="rotate(0,904.5,2047.5)"/><rect x="841" y="2111" width="127" height="127" transform="rotate(0,904.5,2174.5)"/><rect x="841" y="2365" width="127" height="127" transform="rotate(0,904.5,2428.5)"/><rect x="841" y="2619" width="127" height="127" transform="rotate(0,904.5,2682.5)"/><rect x="968" y="1222" width="127" height="127" transform="rotate(0,1031.5,1285.5)"/><rect x="968" y="1476" width="127" height="127" transform="rotate(0,1031.5,1539.5)"/><rect x="968" y="1730" width="127" height="127" transform="rotate(0,1031.5,1793.5)"/><rect x="968" y="1984" width="127" height="127" transform="rotate(0,1031.5,2047.5)"/><rect x="968" y="2238" width="127" height="127" transform="rotate(0,1031.5,2301.5)"/><rect x="968" y="2492" width="127" height="127" transform="rotate(0,1031.5,2555.5)"/><rect x="968" y="2746" width="127" height="127" transform="rotate(0,1031.5,2809.5)"/><rect x="1095" y="1222" width="127" height="127" transform="rotate(0,1158.5,1285.5)"/><rect x="1095" y="1349" width="127" height="127" transform="rotate(0,1158.5,1412.5)"/><rect x="1095" y="1603" width="127" height="127" transform="rotate(0,1158.5,1666.5)"/><rect x="1095" y="1857" width="127" height="127" transform="rotate(0,1158.5,1920.5)"/><rect x="1095" y="2238" width="127" height="127" transform="rotate(0,1158.5,2301.5)"/><rect x="1095" y="2365" width="127" height="127" transform="rotate(0,1158.5,2428.5)"/><rect x="1095" y="2492" width="127" height="127" transform="rotate(0,1158.5,2555.5)"/><rect x="1222" y="333" width="127" height="127" transform="rotate(0,1285.5,396.5)"/><rect x="1222" y="460" width="127" height="127" transform="rotate(0,1285.5,523.5)"/><rect x="1222" y="714" width="127" height="127" transform="rotate(0,1285.5,777.5)"/><rect x="1222" y="968" width="127" height="127" transform="rotate(0,1285.5,1031.5)"/><rect x="1222" y="1095" width="127" height="127" transform="rotate(0,1285.5,1158.5)"/><rect x="1222" y="1349" width="127" height="127" transform="rotate(0,1285.5,1412.5)"/><rect x="1222" y="1476" width="127" height="127" transform="rotate(0,1285.5,1539.5)"/><rect x="1222" y="1603" width="127" height="127" transform="rotate(0,1285.5,1666.5)"/><rect x="1222" y="1857" width="127" height="127" transform="rotate(0,1285.5,1920.5)"/><rect x="1222" y="1984" width="127" height="127" transform="rotate(0,1285.5,2047.5)"/><rect x="1222" y="2111" width="127" height="127" transform="rotate(0,1285.5,2174.5)"/><rect x="1222" y="2238" width="127" height="127" transform="rotate(0,1285.5,2301.5)"/><rect x="1222" y="2492" width="127" height="127" transform="rotate(0,1285.5,2555.5)"/><rect x="1222" y="2746" width="127" height="127" transform="rotate(0,1285.5,2809.5)"/><rect x="1222" y="3000" width="127" height="127" transform="rotate(0,1285.5,3063.5)"/><rect x="1222" y="3254" width="127" height="127" transform="rotate(0,1285.5,3317.5)"/><rect x="1222" y="3381" width="127" height="127" transform="rotate(0,1285.5,3444.5)"/><rect x="1222" y="3508" width="127" height="127" transform="rotate(0,1285.5,3571.5)"/><rect x="1222" y="3635" width="127" height="127" transform="rotate(0,1285.5,3698.5)"/><rect x="1222" y="3762" width="127" height="127" transform="rotate(0,1285.5,3825.5)"/><rect x="1349" y="206" width="127" height="127" transform="rotate(0,1412.5,269.5)"/><rect x="1349" y="460" width="127" height="127" transform="rotate(0,1412.5,523.5)"/><rect x="1349" y="587" width="127" height="127" transform="rotate(0,1412.5,650.5)"/><rect x="1349" y="714" width="127" height="127" transform="rotate(0,1412.5,777.5)"/><rect x="1349" y="841" width="127" height="127" transform="rotate(0,1412.5,904.5)"/><rect x="1349" y="1222" width="127" height="127" transform="rotate(0,1412.5,1285.5)"/><rect x="1349" y="1476" width="127" height="127" transform="rotate(0,1412.5,1539.5)"/><rect x="1349" y="1730" width="127" height="127" transform="rotate(0,1412.5,1793.5)"/><rect x="1349" y="2111" width="127" height="127" transform="rotate(0,1412.5,2174.5)"/><rect x="1349" y="2238" width="127" height="127" transform="rotate(0,1412.5,2301.5)"/><rect x="1349" y="2492" width="127" height="127" transform="rotate(0,1412.5,2555.5)"/><rect x="1349" y="2619" width="127" height="127" transform="rotate(0,1412.5,2682.5)"/><rect x="1349" y="3000" width="127" height="127" transform="rotate(0,1412.5,3063.5)"/><rect x="1349" y="3381" width="127" height="127" transform="rotate(0,1412.5,3444.5)"/><rect x="1349" y="3762" width="127" height="127" transform="rotate(0,1412.5,3825.5)"/><rect x="1476" y="587" width="127" height="127" transform="rotate(0,1539.5,650.5)"/><rect x="1476" y="841" width="127" height="127" transform="rotate(0,1539.5,904.5)"/><rect x="1476" y="968" width="127" height="127" transform="rotate(0,1539.5,1031.5)"/><rect x="1476" y="1095" width="127" height="127" transform="rotate(0,1539.5,1158.5)"/><rect x="1476" y="1349" width="127" height="127" transform="rotate(0,1539.5,1412.5)"/><rect x="1476" y="1603" width="127" height="127" transform="rotate(0,1539.5,1666.5)"/><rect x="1476" y="1730" width="127" height="127" transform="rotate(0,1539.5,1793.5)"/><rect x="1476" y="1857" width="127" height="127" transform="rotate(0,1539.5,1920.5)"/><rect x="1476" y="2238" width="127" height="127" transform="rotate(0,1539.5,2301.5)"/><rect x="1476" y="2492" width="127" height="127" transform="rotate(0,1539.5,2555.5)"/><rect x="1476" y="2746" width="127" height="127" transform="rotate(0,1539.5,2809.5)"/><rect x="1476" y="3127" width="127" height="127" transform="rotate(0,1539.5,3190.5)"/><rect x="1476" y="3254" width="127" height="127" transform="rotate(0,1539.5,3317.5)"/><rect x="1476" y="3381" width="127" height="127" transform="rotate(0,1539.5,3444.5)"/><rect x="1476" y="3635" width="127" height="127" transform="rotate(0,1539.5,3698.5)"/><rect x="1476" y="3762" width="127" height="127" transform="rotate(0,1539.5,3825.5)"/><rect x="1603" y="206" width="127" height="127" transform="rotate(0,1666.5,269.5)"/><rect x="1603" y="460" width="127" height="127" transform="rotate(0,1666.5,523.5)"/><rect x="1603" y="714" width="127" height="127" transform="rotate(0,1666.5,777.5)"/><rect x="1603" y="1095" width="127" height="127" transform="rotate(0,1666.5,1158.5)"/><rect x="1603" y="1349" width="127" height="127" transform="rotate(0,1666.5,1412.5)"/><rect x="1603" y="1730" width="127" height="127" transform="rotate(0,1666.5,1793.5)"/><rect x="1603" y="2111" width="127" height="127" transform="rotate(0,1666.5,2174.5)"/><rect x="1603" y="2238" width="127" height="127" transform="rotate(0,1666.5,2301.5)"/><rect x="1603" y="2365" width="127" height="127" transform="rotate(0,1666.5,2428.5)"/><rect x="1603" y="2492" width="127" height="127" transform="rotate(0,1666.5,2555.5)"/><rect x="1603" y="2746" width="127" height="127" transform="rotate(0,1666.5,2809.5)"/><rect x="1603" y="2873" width="127" height="127" transform="rotate(0,1666.5,2936.5)"/><rect x="1603" y="3000" width="127" height="127" transform="rotate(0,1666.5,3063.5)"/><rect x="1603" y="3127" width="127" height="127" transform="rotate(0,1666.5,3190.5)"/><rect x="1603" y="3635" width="127" height="127" transform="rotate(0,1666.5,3698.5)"/><rect x="1730" y="968" width="127" height="127" transform="rotate(0,1793.5,1031.5)"/><rect x="1730" y="1095" width="127" height="127" transform="rotate(0,1793.5,1158.5)"/><rect x="1730" y="1222" width="127" height="127" transform="rotate(0,1793.5,1285.5)"/><rect x="1730" y="1476" width="127" height="127" transform="rotate(0,1793.5,1539.5)"/><rect x="1730" y="1603" width="127" height="127" transform="rotate(0,1793.5,1666.5)"/><rect x="1730" y="2111" width="127" height="127" transform="rotate(0,1793.5,2174.5)"/><rect x="1730" y="2365" width="127" height="127" transform="rotate(0,1793.5,2428.5)"/><rect x="1730" y="2492" width="127" height="127" transform="rotate(0,1793.5,2555.5)"/><rect x="1730" y="2619" width="127" height="127" transform="rotate(0,1793.5,2682.5)"/><rect x="1730" y="3000" width="127" height="127" transform="rotate(0,1793.5,3063.5)"/><rect x="1730" y="3127" width="127" height="127" transform="rotate(0,1793.5,3190.5)"/><rect x="1857" y="206" width="127" height="127" transform="rotate(0,1920.5,269.5)"/><rect x="1857" y="587" width="127" height="127" transform="rotate(0,1920.5,650.5)"/><rect x="1857" y="714" width="127" height="127" transform="rotate(0,1920.5,777.5)"/><rect x="1857" y="1095" width="127" height="127" transform="rotate(0,1920.5,1158.5)"/><rect x="1857" y="1730" width="127" height="127" transform="rotate(0,1920.5,1793.5)"/><rect x="1857" y="1857" width="127" height="127" transform="rotate(0,1920.5,1920.5)"/><rect x="1857" y="1984" width="127" height="127" transform="rotate(0,1920.5,2047.5)"/><rect x="1857" y="2746" width="127" height="127" transform="rotate(0,1920.5,2809.5)"/><rect x="1857" y="2873" width="127" height="127" transform="rotate(0,1920.5,2936.5)"/><rect x="1857" y="3000" width="127" height="127" transform="rotate(0,1920.5,3063.5)"/><rect x="1857" y="3127" width="127" height="127" transform="rotate(0,1920.5,3190.5)"/><rect x="1857" y="3762" width="127" height="127" transform="rotate(0,1920.5,3825.5)"/><rect x="1984" y="460" width="127" height="127" transform="rotate(0,2047.5,523.5)"/><rect x="1984" y="841" width="127" height="127" transform="rotate(0,2047.5,904.5)"/><rect x="1984" y="968" width="127" height="127" transform="rotate(0,2047.5,1031.5)"/><rect x="1984" y="1095" width="127" height="127" transform="rotate(0,2047.5,1158.5)"/><rect x="1984" y="1222" width="127" height="127" transform="rotate(0,2047.5,1285.5)"/><rect x="1984" y="1349" width="127" height="127" transform="rotate(0,2047.5,1412.5)"/><rect x="1984" y="1476" width="127" height="127" transform="rotate(0,2047.5,1539.5)"/><rect x="1984" y="1730" width="127" height="127" transform="rotate(0,2047.5,1793.5)"/><rect x="1984" y="1984" width="127" height="127" transform="rotate(0,2047.5,2047.5)"/><rect x="1984" y="2111" width="127" height="127" transform="rotate(0,2047.5,2174.5)"/><rect x="1984" y="2238" width="127" height="127" transform="rotate(0,2047.5,2301.5)"/><rect x="1984" y="2365" width="127" height="127" transform="rotate(0,2047.5,2428.5)"/><rect x="1984" y="2873" width="127" height="127" transform="rotate(0,2047.5,2936.5)"/><rect x="1984" y="3000" width="127" height="127" transform="rotate(0,2047.5,3063.5)"/><rect x="1984" y="3127" width="127" height="127" transform="rotate(0,2047.5,3190.5)"/><rect x="1984" y="3508" width="127" height="127" transform="rotate(0,2047.5,3571.5)"/><rect x="1984" y="3762" width="127" height="127" transform="rotate(0,2047.5,3825.5)"/><rect x="2111" y="206" width="127" height="127" transform="rotate(0,2174.5,269.5)"/><rect x="2111" y="333" width="127" height="127" transform="rotate(0,2174.5,396.5)"/><rect x="2111" y="714" width="127" height="127" transform="rotate(0,2174.5,777.5)"/><rect x="2111" y="1476" width="127" height="127" transform="rotate(0,2174.5,1539.5)"/><rect x="2111" y="1603" width="127" height="127" transform="rotate(0,2174.5,1666.5)"/><rect x="2111" y="1730" width="127" height="127" transform="rotate(0,2174.5,1793.5)"/><rect x="2111" y="1857" width="127" height="127" transform="rotate(0,2174.5,1920.5)"/><rect x="2111" y="1984" width="127" height="127" transform="rotate(0,2174.5,2047.5)"/><rect x="2111" y="2238" width="127" height="127" transform="rotate(0,2174.5,2301.5)"/><rect x="2111" y="2619" width="127" height="127" transform="rotate(0,2174.5,2682.5)"/><rect x="2111" y="2873" width="127" height="127" transform="rotate(0,2174.5,2936.5)"/><rect x="2111" y="3127" width="127" height="127" transform="rotate(0,2174.5,3190.5)"/><rect x="2111" y="3635" width="127" height="127" transform="rotate(0,2174.5,3698.5)"/><rect x="2111" y="3762" width="127" height="127" transform="rotate(0,2174.5,3825.5)"/><rect x="2238" y="206" width="127" height="127" transform="rotate(0,2301.5,269.5)"/><rect x="2238" y="460" width="127" height="127" transform="rotate(0,2301.5,523.5)"/><rect x="2238" y="968" width="127" height="127" transform="rotate(0,2301.5,1031.5)"/><rect x="2238" y="1349" width="127" height="127" transform="rotate(0,2301.5,1412.5)"/><rect x="2238" y="1603" width="127" height="127" transform="rotate(0,2301.5,1666.5)"/><rect x="2238" y="1730" width="127" height="127" transform="rotate(0,2301.5,1793.5)"/><rect x="2238" y="2746" width="127" height="127" transform="rotate(0,2301.5,2809.5)"/><rect x="2238" y="2873" width="127" height="127" transform="rotate(0,2301.5,2936.5)"/><rect x="2238" y="3000" width="127" height="127" transform="rotate(0,2301.5,3063.5)"/><rect x="2238" y="3381" width="127" height="127" transform="rotate(0,2301.5,3444.5)"/><rect x="2238" y="3635" width="127" height="127" transform="rotate(0,2301.5,3698.5)"/><rect x="2365" y="333" width="127" height="127" transform="rotate(0,2428.5,396.5)"/><rect x="2365" y="1095" width="127" height="127" transform="rotate(0,2428.5,1158.5)"/><rect x="2365" y="1222" width="127" height="127" transform="rotate(0,2428.5,1285.5)"/><rect x="2365" y="1349" width="127" height="127" transform="rotate(0,2428.5,1412.5)"/><rect x="2365" y="1730" width="127" height="127" transform="rotate(0,2428.5,1793.5)"/><rect x="2365" y="1984" width="127" height="127" transform="rotate(0,2428.5,2047.5)"/><rect x="2365" y="2111" width="127" height="127" transform="rotate(0,2428.5,2174.5)"/><rect x="2365" y="2746" width="127" height="127" transform="rotate(0,2428.5,2809.5)"/><rect x="2365" y="3000" width="127" height="127" transform="rotate(0,2428.5,3063.5)"/><rect x="2365" y="3381" width="127" height="127" transform="rotate(0,2428.5,3444.5)"/><rect x="2365" y="3635" width="127" height="127" transform="rotate(0,2428.5,3698.5)"/><rect x="2365" y="3762" width="127" height="127" transform="rotate(0,2428.5,3825.5)"/><rect x="2492" y="206" width="127" height="127" transform="rotate(0,2555.5,269.5)"/><rect x="2492" y="587" width="127" height="127" transform="rotate(0,2555.5,650.5)"/><rect x="2492" y="714" width="127" height="127" transform="rotate(0,2555.5,777.5)"/><rect x="2492" y="968" width="127" height="127" transform="rotate(0,2555.5,1031.5)"/><rect x="2492" y="1730" width="127" height="127" transform="rotate(0,2555.5,1793.5)"/><rect x="2492" y="1857" width="127" height="127" transform="rotate(0,2555.5,1920.5)"/><rect x="2492" y="2365" width="127" height="127" transform="rotate(0,2555.5,2428.5)"/><rect x="2492" y="2873" width="127" height="127" transform="rotate(0,2555.5,2936.5)"/><rect x="2492" y="3127" width="127" height="127" transform="rotate(0,2555.5,3190.5)"/><rect x="2492" y="3381" width="127" height="127" transform="rotate(0,2555.5,3444.5)"/><rect x="2492" y="3635" width="127" height="127" transform="rotate(0,2555.5,3698.5)"/><rect x="2492" y="3762" width="127" height="127" transform="rotate(0,2555.5,3825.5)"/><rect x="2619" y="333" width="127" height="127" transform="rotate(0,2682.5,396.5)"/><rect x="2619" y="460" width="127" height="127" transform="rotate(0,2682.5,523.5)"/><rect x="2619" y="587" width="127" height="127" transform="rotate(0,2682.5,650.5)"/><rect x="2619" y="1730" width="127" height="127" transform="rotate(0,2682.5,1793.5)"/><rect x="2619" y="1984" width="127" height="127" transform="rotate(0,2682.5,2047.5)"/><rect x="2619" y="2111" width="127" height="127" transform="rotate(0,2682.5,2174.5)"/><rect x="2619" y="2365" width="127" height="127" transform="rotate(0,2682.5,2428.5)"/><rect x="2619" y="2746" width="127" height="127" transform="rotate(0,2682.5,2809.5)"/><rect x="2619" y="3000" width="127" height="127" transform="rotate(0,2682.5,3063.5)"/><rect x="2619" y="3127" width="127" height="127" transform="rotate(0,2682.5,3190.5)"/><rect x="2619" y="3381" width="127" height="127" transform="rotate(0,2682.5,3444.5)"/><rect x="2619" y="3635" width="127" height="127" transform="rotate(0,2682.5,3698.5)"/><rect x="2619" y="3762" width="127" height="127" transform="rotate(0,2682.5,3825.5)"/><rect x="2746" y="206" width="127" height="127" transform="rotate(0,2809.5,269.5)"/><rect x="2746" y="968" width="127" height="127" transform="rotate(0,2809.5,1031.5)"/><rect x="2746" y="1095" width="127" height="127" transform="rotate(0,2809.5,1158.5)"/><rect x="2746" y="1222" width="127" height="127" transform="rotate(0,2809.5,1285.5)"/><rect x="2746" y="1476" width="127" height="127" transform="rotate(0,2809.5,1539.5)"/><rect x="2746" y="1603" width="127" height="127" transform="rotate(0,2809.5,1666.5)"/><rect x="2746" y="1730" width="127" height="127" transform="rotate(0,2809.5,1793.5)"/><rect x="2746" y="2238" width="127" height="127" transform="rotate(0,2809.5,2301.5)"/><rect x="2746" y="2365" width="127" height="127" transform="rotate(0,2809.5,2428.5)"/><rect x="2746" y="2746" width="127" height="127" transform="rotate(0,2809.5,2809.5)"/><rect x="2746" y="2873" width="127" height="127" transform="rotate(0,2809.5,2936.5)"/><rect x="2746" y="3000" width="127" height="127" transform="rotate(0,2809.5,3063.5)"/><rect x="2746" y="3127" width="127" height="127" transform="rotate(0,2809.5,3190.5)"/><rect x="2746" y="3254" width="127" height="127" transform="rotate(0,2809.5,3317.5)"/><rect x="2746" y="3381" width="127" height="127" transform="rotate(0,2809.5,3444.5)"/><rect x="2873" y="1222" width="127" height="127" transform="rotate(0,2936.5,1285.5)"/><rect x="2873" y="1349" width="127" height="127" transform="rotate(0,2936.5,1412.5)"/><rect x="2873" y="1730" width="127" height="127" transform="rotate(0,2936.5,1793.5)"/><rect x="2873" y="1857" width="127" height="127" transform="rotate(0,2936.5,1920.5)"/><rect x="2873" y="1984" width="127" height="127" transform="rotate(0,2936.5,2047.5)"/><rect x="2873" y="2365" width="127" height="127" transform="rotate(0,2936.5,2428.5)"/><rect x="2873" y="2746" width="127" height="127" transform="rotate(0,2936.5,2809.5)"/><rect x="2873" y="3254" width="127" height="127" transform="rotate(0,2936.5,3317.5)"/><rect x="2873" y="3635" width="127" height="127" transform="rotate(0,2936.5,3698.5)"/><rect x="3000" y="1222" width="127" height="127" transform="rotate(0,3063.5,1285.5)"/><rect x="3000" y="1349" width="127" height="127" transform="rotate(0,3063.5,1412.5)"/><rect x="3000" y="2492" width="127" height="127" transform="rotate(0,3063.5,2555.5)"/><rect x="3000" y="2619" width="127" height="127" transform="rotate(0,3063.5,2682.5)"/><rect x="3000" y="2746" width="127" height="127" transform="rotate(0,3063.5,2809.5)"/><rect x="3000" y="3000" width="127" height="127" transform="rotate(0,3063.5,3063.5)"/><rect x="3000" y="3254" width="127" height="127" transform="rotate(0,3063.5,3317.5)"/><rect x="3000" y="3508" width="127" height="127" transform="rotate(0,3063.5,3571.5)"/><rect x="3000" y="3635" width="127" height="127" transform="rotate(0,3063.5,3698.5)"/><rect x="3000" y="3762" width="127" height="127" transform="rotate(0,3063.5,3825.5)"/><rect x="3127" y="2238" width="127" height="127" transform="rotate(0,3190.5,2301.5)"/><rect x="3127" y="2365" width="127" height="127" transform="rotate(0,3190.5,2428.5)"/><rect x="3127" y="2492" width="127" height="127" transform="rotate(0,3190.5,2555.5)"/><rect x="3127" y="2746" width="127" height="127" transform="rotate(0,3190.5,2809.5)"/><rect x="3127" y="3254" width="127" height="127" transform="rotate(0,3190.5,3317.5)"/><rect x="3127" y="3762" width="127" height="127" transform="rotate(0,3190.5,3825.5)"/><rect x="3254" y="1222" width="127" height="127" transform="rotate(0,3317.5,1285.5)"/><rect x="3254" y="1476" width="127" height="127" transform="rotate(0,3317.5,1539.5)"/><rect x="3254" y="1603" width="127" height="127" transform="rotate(0,3317.5,1666.5)"/><rect x="3254" y="1857" width="127" height="127" transform="rotate(0,3317.5,1920.5)"/><rect x="3254" y="1984" width="127" height="127" transform="rotate(0,3317.5,2047.5)"/><rect x="3254" y="2111" width="127" height="127" transform="rotate(0,3317.5,2174.5)"/><rect x="3254" y="2238" width="127" height="127" transform="rotate(0,3317.5,2301.5)"/><rect x="3254" y="2492" width="127" height="127" transform="rotate(0,3317.5,2555.5)"/><rect x="3254" y="2746" width="127" height="127" transform="rotate(0,3317.5,2809.5)"/><rect x="3254" y="2873" width="127" height="127" transform="rotate(0,3317.5,2936.5)"/><rect x="3254" y="3000" width="127" height="127" transform="rotate(0,3317.5,3063.5)"/><rect x="3254" y="3127" width="127" height="127" transform="rotate(0,3317.5,3190.5)"/><rect x="3254" y="3254" width="127" height="127" transform="rotate(0,3317.5,3317.5)"/><rect x="3254" y="3381" width="127" height="127" transform="rotate(0,3317.5,3444.5)"/><rect x="3254" y="3635" width="127" height="127" transform="rotate(0,3317.5,3698.5)"/><rect x="3381" y="1349" width="127" height="127" transform="rotate(0,3444.5,1412.5)"/><rect x="3381" y="1730" width="127" height="127" transform="rotate(0,3444.5,1793.5)"/><rect x="3381" y="2111" width="127" height="127" transform="rotate(0,3444.5,2174.5)"/><rect x="3381" y="2238" width="127" height="127" transform="rotate(0,3444.5,2301.5)"/><rect x="3381" y="2492" width="127" height="127" transform="rotate(0,3444.5,2555.5)"/><rect x="3381" y="2746" width="127" height="127" transform="rotate(0,3444.5,2809.5)"/><rect x="3381" y="2873" width="127" height="127" transform="rotate(0,3444.5,2936.5)"/><rect x="3381" y="3254" width="127" height="127" transform="rotate(0,3444.5,3317.5)"/><rect x="3508" y="1222" width="127" height="127" transform="rotate(0,3571.5,1285.5)"/><rect x="3508" y="1349" width="127" height="127" transform="rotate(0,3571.5,1412.5)"/><rect x="3508" y="1603" width="127" height="127" transform="rotate(0,3571.5,1666.5)"/><rect x="3508" y="1730" width="127" height="127" transform="rotate(0,3571.5,1793.5)"/><rect x="3508" y="1857" width="127" height="127" transform="rotate(0,3571.5,1920.5)"/><rect x="3508" y="2111" width="127" height="127" transform="rotate(0,3571.5,2174.5)"/><rect x="3508" y="2238" width="127" height="127" transform="rotate(0,3571.5,2301.5)"/><rect x="3508" y="2492" width="127" height="127" transform="rotate(0,3571.5,2555.5)"/><rect x="3508" y="2619" width="127" height="127" transform="rotate(0,3571.5,2682.5)"/><rect x="3508" y="3127" width="127" height="127" transform="rotate(0,3571.5,3190.5)"/><rect x="3508" y="3254" width="127" height="127" transform="rotate(0,3571.5,3317.5)"/><rect x="3508" y="3381" width="127" height="127" transform="rotate(0,3571.5,3444.5)"/><rect x="3508" y="3508" width="127" height="127" transform="rotate(0,3571.5,3571.5)"/><rect x="3508" y="3762" width="127" height="127" transform="rotate(0,3571.5,3825.5)"/><rect x="3635" y="1222" width="127" height="127" transform="rotate(0,3698.5,1285.5)"/><rect x="3635" y="1349" width="127" height="127" transform="rotate(0,3698.5,1412.5)"/><rect x="3635" y="1476" width="127" height="127" transform="rotate(0,3698.5,1539.5)"/><rect x="3635" y="1603" width="127" height="127" transform="rotate(0,3698.5,1666.5)"/><rect x="3635" y="1730" width="127" height="127" transform="rotate(0,3698.5,1793.5)"/><rect x="3635" y="1857" width="127" height="127" transform="rotate(0,3698.5,1920.5)"/><rect x="3635" y="1984" width="127" height="127" transform="rotate(0,3698.5,2047.5)"/><rect x="3635" y="2238" width="127" height="127" transform="rotate(0,3698.5,2301.5)"/><rect x="3635" y="2365" width="127" height="127" transform="rotate(0,3698.5,2428.5)"/><rect x="3635" y="2492" width="127" height="127" transform="rotate(0,3698.5,2555.5)"/><rect x="3635" y="2619" width="127" height="127" transform="rotate(0,3698.5,2682.5)"/><rect x="3635" y="2746" width="127" height="127" transform="rotate(0,3698.5,2809.5)"/><rect x="3635" y="2873" width="127" height="127" transform="rotate(0,3698.5,2936.5)"/><rect x="3635" y="3000" width="127" height="127" transform="rotate(0,3698.5,3063.5)"/><rect x="3635" y="3127" width="127" height="127" transform="rotate(0,3698.5,3190.5)"/><rect x="3635" y="3635" width="127" height="127" transform="rotate(0,3698.5,3698.5)"/><rect x="3762" y="1349" width="127" height="127" transform="rotate(0,3825.5,1412.5)"/><rect x="3762" y="1476" width="127" height="127" transform="rotate(0,3825.5,1539.5)"/><rect x="3762" y="1857" width="127" height="127" transform="rotate(0,3825.5,1920.5)"/><rect x="3762" y="1984" width="127" height="127" transform="rotate(0,3825.5,2047.5)"/><rect x="3762" y="2111" width="127" height="127" transform="rotate(0,3825.5,2174.5)"/><rect x="3762" y="2238" width="127" height="127" transform="rotate(0,3825.5,2301.5)"/><rect x="3762" y="2365" width="127" height="127" transform="rotate(0,3825.5,2428.5)"/><rect x="3762" y="2619" width="127" height="127" transform="rotate(0,3825.5,2682.5)"/><rect x="3762" y="2746" width="127" height="127" transform="rotate(0,3825.5,2809.5)"/><rect x="3762" y="3000" width="127" height="127" transform="rotate(0,3825.5,3063.5)"/><rect x="3762" y="3254" width="127" height="127" transform="rotate(0,3825.5,3317.5)"/><rect x="3762" y="3381" width="127" height="127" transform="rotate(0,3825.5,3444.5)"/><rect x="3762" y="3508" width="127" height="127" transform="rotate(0,3825.5,3571.5)"/><rect x="3762" y="3635" width="127" height="127" transform="rotate(0,3825.5,3698.5)"/><rect x="3762" y="3762" width="127" height="127" transform="rotate(0,3825.5,3825.5)"/></clipPath><clipPath id="clip-path-corners-square-color-0-0"><rect x="206" y="206" width="127" height="127" transform="rotate(0,269.5,269.5)"/><rect x="206" y="333" width="127" height="127" transform="rotate(0,269.5,396.5)"/><rect x="206" y="460" width="127" height="127" transform="rotate(0,269.5,523.5)"/><rect x="206" y="587" width="127" height="127" transform="rotate(0,269.5,650.5)"/><rect x="206" y="714" width="127" height="127" transform="rotate(0,269.5,777.5)"/><rect x="206" y="841" width="127" height="127" transform="rotate(0,269.5,904.5)"/><rect x="206" y="968" width="127" height="127" transform="rotate(0,269.5,1031.5)"/><rect x="333" y="206" width="127" height="127" transform="rotate(0,396.5,269.5)"/><rect x="333" y="968" width="127" height="127" transform="rotate(0,396.5,1031.5)"/><rect x="460" y="206" width="127" height="127" transform="rotate(0,523.5,269.5)"/><rect x="460" y="968" width="127" height="127" transform="rotate(0,523.5,1031.5)"/><rect x="587" y="206" width="127" height="127" transform="rotate(0,650.5,269.5)"/><rect x="587" y="968" width="127" height="127" transform="rotate(0,650.5,1031.5)"/><rect x="714" y="206" width="127" height="127" transform="rotate(0,777.5,269.5)"/><rect x="714" y="968" width="127" height="127" transform="rotate(0,777.5,1031.5)"/><rect x="841" y="206" width="127" height="127" transform="rotate(0,904.5,269.5)"/><rect x="841" y="968" width="127" height="127" transform="rotate(0,904.5,1031.5)"/><rect x="968" y="206" width="127" height="127" transform="rotate(0,1031.5,269.5)"/><rect x="968" y="333" width="127" height="127" transform="rotate(0,1031.5,396.5)"/><rect x="968" y="460" width="127" height="127" transform="rotate(0,1031.5,523.5)"/><rect x="968" y="587" width="127" height="127" transform="rotate(0,1031.5,650.5)"/><rect x="968" y="714" width="127" height="127" transform="rotate(0,1031.5,777.5)"/><rect x="968" y="841" width="127" height="127" transform="rotate(0,1031.5,904.5)"/><rect x="968" y="968" width="127" height="127" transform="rotate(0,1031.5,1031.5)"/></clipPath><clipPath id="clip-path-corners-dot-color-0-0"><rect x="460" y="460" width="127" height="127" transform="rotate(0,523.5,523.5)"/><rect x="460" y="587" width="127" height="127" transform="rotate(0,523.5,650.5)"/><rect x="460" y="714" width="127" height="127" transform="rotate(0,523.5,777.5)"/><rect x="587" y="460" width="127" height="127" transform="rotate(0,650.5,523.5)"/><rect x="587" y="587" width="127" height="127" transform="rotate(0,650.5,650.5)"/><rect x="587" y="714" width="127" height="127" transform="rotate(0,650.5,777.5)"/><rect x="714" y="460" width="127" height="127" transform="rotate(0,777.5,523.5)"/><rect x="714" y="587" width="127" height="127" transform="rotate(0,777.5,650.5)"/><rect x="714" y="714" width="127" height="127" transform="rotate(0,777.5,777.5)"/></clipPath><clipPath id="clip-path-corners-square-color-1-0"><rect x="3000" y="206" width="127" height="127" transform="rotate(0,3063.5,269.5)"/><rect x="3000" y="333" width="127" height="127" transform="rotate(0,3063.5,396.5)"/><rect x="3000" y="460" width="127" height="127" transform="rotate(0,3063.5,523.5)"/><rect x="3000" y="587" width="127" height="127" transform="rotate(0,3063.5,650.5)"/><rect x="3000" y="714" width="127" height="127" transform="rotate(0,3063.5,777.5)"/><rect x="3000" y="841" width="127" height="127" transform="rotate(0,3063.5,904.5)"/><rect x="3000" y="968" width="127" height="127" transform="rotate(0,3063.5,1031.5)"/><rect x="3127" y="206" width="127" height="127" transform="rotate(0,3190.5,269.5)"/><rect x="3127" y="968" width="127" height="127" transform="rotate(0,3190.5,1031.5)"/><rect x="3254" y="206" width="127" height="127" transform="rotate(0,3317.5,269.5)"/><rect x="3254" y="968" width="127" height="127" transform="rotate(0,3317.5,1031.5)"/><rect x="3381" y="206" width="127" height="127" transform="rotate(0,3444.5,269.5)"/><rect x="3381" y="968" width="127" height="127" transform="rotate(0,3444.5,1031.5)"/><rect x="3508" y="206" width="127" height="127" transform="rotate(0,3571.5,269.5)"/><rect x="3508" y="968" width="127" height="127" transform="rotate(0,3571.5,1031.5)"/><rect x="3635" y="206" width="127" height="127" transform="rotate(0,3698.5,269.5)"/><rect x="3635" y="968" width="127" height="127" transform="rotate(0,3698.5,1031.5)"/><rect x="3762" y="206" width="127" height="127" transform="rotate(0,3825.5,269.5)"/><rect x="3762" y="333" width="127" height="127" transform="rotate(0,3825.5,396.5)"/><rect x="3762" y="460" width="127" height="127" transform="rotate(0,3825.5,523.5)"/><rect x="3762" y="587" width="127" height="127" transform="rotate(0,3825.5,650.5)"/><rect x="3762" y="714" width="127" height="127" transform="rotate(0,3825.5,777.5)"/><rect x="3762" y="841" width="127" height="127" transform="rotate(0,3825.5,904.5)"/><rect x="3762" y="968" width="127" height="127" transform="rotate(0,3825.5,1031.5)"/></clipPath><clipPath id="clip-path-corners-dot-color-1-0"><rect x="3254" y="460" width="127" height="127" transform="rotate(0,3317.5,523.5)"/><rect x="3254" y="587" width="127" height="127" transform="rotate(0,3317.5,650.5)"/><rect x="3254" y="714" width="127" height="127" transform="rotate(0,3317.5,777.5)"/><rect x="3381" y="460" width="127" height="127" transform="rotate(0,3444.5,523.5)"/><rect x="3381" y="587" width="127" height="127" transform="rotate(0,3444.5,650.5)"/><rect x="3381" y="714" width="127" height="127" transform="rotate(0,3444.5,777.5)"/><rect x="3508" y="460" width="127" height="127" transform="rotate(0,3571.5,523.5)"/><rect x="3508" y="587" width="127" height="127" transform="rotate(0,3571.5,650.5)"/><rect x="3508" y="714" width="127" height="127" transform="rotate(0,3571.5,777.5)"/></clipPath><clipPath id="clip-path-corners-square-color-0-1"><rect x="206" y="3000" width="127" height="127" transform="rotate(0,269.5,3063.5)"/><rect x="206" y="3127" width="127" height="127" transform="rotate(0,269.5,3190.5)"/><rect x="206" y="3254" width="127" height="127" transform="rotate(0,269.5,3317.5)"/><rect x="206" y="3381" width="127" height="127" transform="rotate(0,269.5,3444.5)"/><rect x="206" y="3508" width="127" height="127" transform="rotate(0,269.5,3571.5)"/><rect x="206" y="3635" width="127" height="127" transform="rotate(0,269.5,3698.5)"/><rect x="206" y="3762" width="127" height="127" transform="rotate(0,269.5,3825.5)"/><rect x="333" y="3000" width="127" height="127" transform="rotate(0,396.5,3063.5)"/><rect x="333" y="3762" width="127" height="127" transform="rotate(0,396.5,3825.5)"/><rect x="460" y="3000" width="127" height="127" transform="rotate(0,523.5,3063.5)"/><rect x="460" y="3762" width="127" height="127" transform="rotate(0,523.5,3825.5)"/><rect x="587" y="3000" width="127" height="127" transform="rotate(0,650.5,3063.5)"/><rect x="587" y="3762" width="127" height="127" transform="rotate(0,650.5,3825.5)"/><rect x="714" y="3000" width="127" height="127" transform="rotate(0,777.5,3063.5)"/><rect x="714" y="3762" width="127" height="127" transform="rotate(0,777.5,3825.5)"/><rect x="841" y="3000" width="127" height="127" transform="rotate(0,904.5,3063.5)"/><rect x="841" y="3762" width="127" height="127" transform="rotate(0,904.5,3825.5)"/><rect x="968" y="3000" width="127" height="127" transform="rotate(0,1031.5,3063.5)"/><rect x="968" y="3127" width="127" height="127" transform="rotate(0,1031.5,3190.5)"/><rect x="968" y="3254" width="127" height="127" transform="rotate(0,1031.5,3317.5)"/><rect x="968" y="3381" width="127" height="127" transform="rotate(0,1031.5,3444.5)"/><rect x="968" y="3508" width="127" height="127" transform="rotate(0,1031.5,3571.5)"/><rect x="968" y="3635" width="127" height="127" transform="rotate(0,1031.5,3698.5)"/><rect x="968" y="3762" width="127" height="127" transform="rotate(0,1031.5,3825.5)"/></clipPath><clipPath id="clip-path-corners-dot-color-0-1"><rect x="460" y="3254" width="127" height="127" transform="rotate(0,523.5,3317.5)"/><rect x="460" y="3381" width="127" height="127" transform="rotate(0,523.5,3444.5)"/><rect x="460" y="3508" width="127" height="127" transform="rotate(0,523.5,3571.5)"/><rect x="587" y="3254" width="127" height="127" transform="rotate(0,650.5,3317.5)"/><rect x="587" y="3381" width="127" height="127" transform="rotate(0,650.5,3444.5)"/><rect x="587" y="3508" width="127" height="127" transform="rotate(0,650.5,3571.5)"/><rect x="714" y="3254" width="127" height="127" transform="rotate(0,777.5,3317.5)"/><rect x="714" y="3381" width="127" height="127" transform="rotate(0,777.5,3444.5)"/><rect x="714" y="3508" width="127" height="127" transform="rotate(0,777.5,3571.5)"/></clipPath></defs><rect x="0" y="0" height="4096" width="4096" clip-path="url('#clip-path-background-color')" fill="#ffffff"/><rect x="206" y="206" height="3683" width="3683" clip-path="url('#clip-path-dot-color')" fill="#000000"/><rect x="206" y="206" height="889" width="889" clip-path="url('#clip-path-corners-square-color-0-0')" fill="#000000"/><rect x="460" y="460" height="381" width="381" clip-path="url('#clip-path-corners-dot-color-0-0')" fill="#000000"/><rect x="3000" y="206" height="889" width="889" clip-path="url('#clip-path-corners-square-color-1-0')" fill="#000000"/><rect x="3254" y="460" height="381" width="381" clip-path="url('#clip-path-corners-dot-color-1-0')" fill="#000000"/><rect x="206" y="3000" height="889" width="889" clip-path="url('#clip-path-corners-square-color-0-1')" fill="#000000"/><rect x="460" y="3254" height="381" width="381" clip-path="url('#clip-path-corners-dot-color-0-1')" fill="#000000"/></svg>